<svg width="24" height="24" viewBox="0 0 1000 1000" xmlns="http://www.w3.org/2000/svg"><path d=" M 200 725C 200 725 800 725 800 725C 809 725 817 730 822 737C 826 745 826 755 822 763C 817 770 809 775 800 775C 800 775 200 775 200 775C 191 775 183 770 178 763C 174 755 174 745 178 737C 183 730 191 725 200 725C 200 725 200 725 200 725M 200 475C 200 475 800 475 800 475C 809 475 817 480 822 487C 826 495 826 505 822 513C 817 520 809 525 800 525C 800 525 200 525 200 525C 191 525 183 520 178 513C 174 505 174 495 178 487C 183 480 191 475 200 475C 200 475 200 475 200 475M 200 225C 200 225 800 225 800 225C 809 225 817 230 822 237C 827 245 827 255 822 263C 817 270 809 275 800 275C 800 275 200 275 200 275C 191 275 183 270 178 263C 173 255 173 245 178 237C 183 230 191 225 200 225C 200 225 200 225 200 225"/></svg>